<svg width="37" height="37" viewBox="0 0 37 37" fill="none" xmlns="http://www.w3.org/2000/svg">
<g filter="url(#filter0_f_0_3616)">
<circle cx="18.5" cy="18.5" r="14.5" fill="url(#paint0_linear_0_3616)"/>
</g>
<circle cx="18.5" cy="18.5" r="14.5" fill="url(#paint1_linear_0_3616)"/>
<path fill-rule="evenodd" clip-rule="evenodd" d="M16.0882 14.1219L13.5923 15.5596L13.5906 16.4037L13.5888 17.2478H13.0115H12.4341L11.7553 16.5657L11.0764 15.8835L11.0723 15.5591C11.0691 15.3045 11.0385 15.203 10.9306 15.0878C10.4761 14.6031 9.74721 14.888 9.74656 15.5508C9.74639 15.7326 9.7883 15.8209 9.95329 15.9862C10.1397 16.173 10.187 16.1914 10.4307 16.1719L10.7013 16.1504L11.499 16.9361L12.2969 17.7217H13.1778H14.0588L14.0751 16.7648L14.0913 15.8078L16.2786 14.5368C17.4816 13.8377 18.5072 13.2537 18.5577 13.239C18.6082 13.2242 19.659 13.7962 20.8928 14.51L23.136 15.8078L23.1523 16.7648L23.1685 17.7217H24.0608H24.9531L25.7135 16.941L26.474 16.1603L26.7735 16.174C27.0446 16.1864 27.0922 16.1684 27.277 15.9833C27.4391 15.8208 27.481 15.732 27.4808 15.5508C27.4801 14.8771 26.7226 14.6037 26.2691 15.1134C26.182 15.2114 26.1509 15.3301 26.1509 15.5649V15.8834L25.472 16.5656L24.7932 17.2478H24.2158H23.6385L23.6367 16.4037L23.6348 15.5596L21.1717 14.138C19.817 13.3561 18.6805 12.7092 18.6463 12.7003C18.6121 12.6915 17.461 13.3312 16.0882 14.1219ZM16.6037 14.9647L14.6234 16.1133L14.6072 17.184L14.5911 18.2548H13.3349H12.0788L11.5789 17.7513L11.079 17.2478H10.0935H9.10788L8.90097 17.0405C8.656 16.795 8.35492 16.7627 8.04977 16.9492C7.6693 17.1816 7.67882 17.8017 8.06673 18.0563C8.37774 18.2605 8.94454 18.1286 9.02139 17.8341C9.04864 17.7297 9.11698 17.7217 9.97623 17.7217H10.9017L11.4016 18.2252L11.9014 18.7287H13.2476H14.5938V19.781V20.8334L16.6037 21.9972L18.6137 23.1609L20.6236 21.9972L22.6335 20.8334V19.781V18.7287H23.9797H25.3259L25.8258 18.2252L26.3257 17.7217H27.2245H28.1233L28.2465 17.8951C28.4822 18.2268 29.0115 18.2604 29.2822 17.9607C29.4406 17.7853 29.497 17.4361 29.4032 17.2112C29.2175 16.7661 28.4642 16.6978 28.246 17.1062C28.1708 17.247 28.1649 17.2478 27.1594 17.2478H26.1483L25.6484 17.7513L25.1486 18.2548H23.8924H22.6362L22.6201 17.184L22.604 16.1133L20.6236 14.9647C19.5344 14.333 18.6299 13.8161 18.6137 13.8161C18.5974 13.8161 17.6929 14.333 16.6037 14.9647ZM19.9998 15.1276C20.6843 15.5224 21.4571 15.9699 21.7172 16.122L22.1902 16.3985L22.2057 18.4755L22.2212 20.5525L20.4142 21.5938L18.6072 22.6351L17.1473 21.7882C16.3444 21.3225 15.5342 20.8545 15.3468 20.7484L15.0061 20.5554L15.0216 18.4776L15.0372 16.3998L16.8106 15.3722C17.8054 14.7959 18.6217 14.359 18.6697 14.3773C18.7168 14.3952 19.3154 14.7329 19.9998 15.1276ZM10.5621 15.3642C10.6701 15.4724 10.647 15.6369 10.5136 15.7084C10.3788 15.7807 10.3058 15.7513 10.2197 15.5901C10.1138 15.392 10.4009 15.2026 10.5621 15.3642ZM26.9742 15.386C27.068 15.48 27.027 15.6525 26.8908 15.7368C26.8005 15.7927 26.5943 15.6557 26.5943 15.5398C26.5943 15.3144 26.814 15.2255 26.9742 15.386ZM15.6578 18.5954L15.6578 20.2391L15.9297 20.232L16.2016 20.2249L16.1931 19.3287C16.1885 18.8358 16.2003 18.4325 16.2195 18.4325C16.2386 18.4325 16.453 18.839 16.6958 19.3358C16.9386 19.8326 17.1636 20.2365 17.1957 20.2332C17.2278 20.23 17.3205 20.2233 17.4018 20.2184L17.5496 20.2095V18.5773V16.9451L17.2688 16.9632L16.988 16.9813L16.9981 17.9214C17.0037 18.4385 16.9879 18.8383 16.9632 18.8099C16.9383 18.7815 16.7344 18.3518 16.5101 17.855L16.1022 16.9516H15.88H15.6579L15.6578 18.5954ZM18.0225 18.579V20.2095H18.3161H18.6098L18.6265 19.5431L18.6432 18.8768L19.1014 18.8595L19.5595 18.8422V18.6077V18.3733H19.0866H18.6137V17.929V17.4848H19.1626H19.7115L19.7094 17.233L19.7073 16.9813L18.8649 16.9649L18.0225 16.9484V18.579ZM19.9733 17.2182V17.4848H20.2689H20.5645V18.862V20.2391H20.8601H21.1556V18.862V17.4848H21.4512H21.7468V17.2182V16.9516H20.8601H19.9733V17.2182ZM8.5967 17.3698C8.68106 17.4631 8.69212 17.5151 8.64388 17.5919C8.56313 17.7203 8.40487 17.7513 8.29516 17.6601C8.18384 17.5676 8.18632 17.457 8.30219 17.3409C8.42355 17.2193 8.46446 17.2234 8.5967 17.3698ZM28.9037 17.3091C29.1169 17.4235 28.9859 17.759 28.7464 17.7118C28.565 17.676 28.5075 17.5061 28.6306 17.3698C28.7585 17.2282 28.7544 17.2291 28.9037 17.3091ZM10.0605 18.9034C9.82466 19.0475 9.74633 19.1917 9.74633 19.4817C9.74633 19.7477 9.8629 19.9381 10.1017 20.0618C10.428 20.2309 10.8267 20.1261 10.985 19.8295L11.0669 19.6764H12.3263H13.5857L13.602 20.5411L13.6184 21.4057L16.1159 22.853L18.6134 24.3002L21.1112 22.8538L23.6089 21.4074L23.6253 20.5419L23.6416 19.6764H24.9011H26.1605L26.2423 19.8295C26.5527 20.4108 27.481 20.1356 27.481 19.4623C27.481 18.8065 26.5462 18.5396 26.2423 19.1087L26.1605 19.2618H24.663H23.1656V20.2007V21.1396L20.8893 22.4568L18.613 23.774L16.5886 22.6045C15.4752 21.9613 14.4512 21.37 14.313 21.2905L14.0618 21.146V20.2039V19.2618H12.5643H11.0669L10.985 19.1087C10.8175 18.795 10.3924 18.7006 10.0605 18.9034ZM10.6008 19.3719C10.6546 19.5417 10.5758 19.6764 10.4228 19.6764C10.2516 19.6764 10.1481 19.5134 10.2263 19.367C10.3014 19.2264 10.5559 19.2297 10.6008 19.3719ZM27.0037 19.3721C27.0868 19.5277 26.9548 19.6937 26.7689 19.6672C26.6231 19.6465 26.5563 19.5057 26.617 19.3472C26.6642 19.2239 26.9339 19.2413 27.0037 19.3721Z" fill="white"/>
<defs>
<filter id="filter0_f_0_3616" x="0" y="0" width="37" height="37" filterUnits="userSpaceOnUse" color-interpolation-filters="sRGB">
<feFlood flood-opacity="0" result="BackgroundImageFix"/>
<feBlend mode="normal" in="SourceGraphic" in2="BackgroundImageFix" result="shape"/>
<feGaussianBlur stdDeviation="2" result="effect1_foregroundBlur_0_3616"/>
</filter>
<linearGradient id="paint0_linear_0_3616" x1="18.5" y1="4" x2="18.5" y2="33" gradientUnits="userSpaceOnUse">
<stop offset="0.103023" stop-color="#952FFE"/>
<stop offset="0.443926" stop-color="#C641C6"/>
<stop offset="0.76148" stop-color="#FF676B"/>
</linearGradient>
<linearGradient id="paint1_linear_0_3616" x1="18.5" y1="4" x2="18.5" y2="33" gradientUnits="userSpaceOnUse">
<stop offset="0.103023" stop-color="#952FFE"/>
<stop offset="0.443926" stop-color="#C641C6"/>
<stop offset="0.76148" stop-color="#FF676B"/>
</linearGradient>
</defs>
</svg>
